<svg xmlns="http://www.w3.org/2000/svg" xmlns:svg="http://www.w3.org/2000/svg" id="svg59133" width="188.39" height="144.72" version="1.1" viewBox="0 0 49.845 38.291"><defs id="defs59130"><linearGradient id="linearGradient80862"><stop style="stop-color:#e1e1e1;stop-opacity:1" id="stop80860" offset="0"/></linearGradient></defs><g id="layer1" transform="translate(-0.63061318,-0.73895301)"><g id="g90752" transform="rotate(30,129.24305,-49.237439)"><path style="fill:none;stroke:#000;stroke-width:.264583px;stroke-linecap:butt;stroke-linejoin:miter;stroke-opacity:1" id="path59313" d="m 57.75399,71.811119 15,-25.980762 15,25.980762 z"/><path style="fill:none;fill-opacity:1;stroke:#d2d2d2;stroke-width:1;stroke-linecap:butt;stroke-linejoin:miter;stroke-miterlimit:4;stroke-dasharray:none;stroke-opacity:.330571" id="path59313-6-7-3" d="m 72.75399,71.811484 7.5,-12.990381 7.5,12.990746 z"/><path style="fill:none;fill-opacity:1;stroke:#d2d2d2;stroke-width:1;stroke-linecap:butt;stroke-linejoin:miter;stroke-miterlimit:4;stroke-dasharray:none;stroke-opacity:.330571" id="path59313-6-7-3-1" d="m 65.25399,58.820738 7.5,-12.990381 7.5,12.990746 z"/><path style="fill:none;fill-opacity:1;stroke:#d2d2d2;stroke-width:1;stroke-linecap:butt;stroke-linejoin:miter;stroke-miterlimit:4;stroke-dasharray:none;stroke-opacity:.330571" id="path59313-6-7-3-1-0" d="m 57.75399,71.810389 7.5,-12.990381 7.5,12.990746 z"/><path style="fill:#cb3c33;fill-opacity:1;stroke:#fff;stroke-width:.5;stroke-linecap:butt;stroke-linejoin:miter;stroke-miterlimit:4;stroke-dasharray:none;stroke-opacity:1" id="path59313-6-7-2-9" d="m 57.75399,71.809659 7.5,-12.990381 7.5,12.990746 z"/><path style="fill:#9558b2;fill-opacity:1;stroke:#fff;stroke-width:.5;stroke-linecap:butt;stroke-linejoin:miter;stroke-miterlimit:4;stroke-dasharray:none;stroke-opacity:1" id="path59313-6-7" d="m 72.75399,71.810754 7.5,-12.990381 7.5,12.990746 z"/><path style="fill:#389826;fill-opacity:1;stroke:#fff;stroke-width:.5;stroke-linecap:butt;stroke-linejoin:miter;stroke-miterlimit:4;stroke-dasharray:none;stroke-opacity:1" id="path59313-6-7-2" d="m 65.25399,58.820008 7.5,-12.990381 7.5,12.990746 z"/></g><path style="fill:none;stroke:#000;stroke-width:.35;stroke-linecap:round;stroke-linejoin:miter;stroke-miterlimit:4;stroke-dasharray:none;stroke-opacity:.128273" id="path91716" d="m 0.80561318,19.544386 c 0,0 2.20089102,0.137619 3.73469402,-0.265436 C 7.6603432,18.459063 24.985808,7.5195253 32.71646,3.1885023 c 4.71765,-2.64301797 12.094716,-3.42469297 16.222551,0.06855 1.708086,1.445494 1.662253,3.15696 0.671209,4.766797 -0.699777,1.136706 -2.083726,1.961844 -3.869515,1.368122 -2.441517,-0.811732 -2.234603,-3.597347 -2.234603,-3.597347"/><path style="fill:none;stroke:#000;stroke-width:.35;stroke-linecap:round;stroke-linejoin:miter;stroke-miterlimit:4;stroke-dasharray:none;stroke-opacity:.128273" id="path91716-3" d="m 0.80561318,20.224089 c 0,0 2.20089102,-0.137619 3.73469402,0.265436 3.120036,0.819887 20.4455008,11.759425 28.1761528,16.090448 4.71765,2.643018 12.094716,3.424693 16.222551,-0.06855 1.708086,-1.445494 1.662253,-3.15696 0.671209,-4.766797 -0.699777,-1.136706 -2.083726,-1.961844 -3.869515,-1.368122 -2.441517,0.811732 -2.234603,3.597347 -2.234603,3.597347"/></g></svg>